<svg xmlns="http://www.w3.org/2000/svg" xmlns:xlink="http://www.w3.org/1999/xlink" width="147.938" height="141.274" viewBox="0 0 147.938 141.274">
  <defs>
    <linearGradient id="linear-gradient" x1="-0.13" y1="-0.135" x2="1.28" y2="1.145" gradientUnits="objectBoundingBox">
      <stop offset="0" stop-color="#fde230"/>
      <stop offset="1" stop-color="#f60"/>
    </linearGradient>
  </defs>
  <g id="Group_89435" data-name="Group 89435" transform="translate(-108 -280.085)">
    <path id="Path_89048" data-name="Path 89048" d="M70.444-137.915V-19.072L82.954-8.408H38.76L51.782-19.072v-90.234a25.879,25.879,0,0,1-12,3.076,16.487,16.487,0,0,1-14.561-7.69h.82a20.936,20.936,0,0,0,13.535,5.127,21.341,21.341,0,0,0,12.2-3.589v-6.357a26.777,26.777,0,0,1-16.3,5.127,14.778,14.778,0,0,1-8.562-2.358,6.928,6.928,0,0,1-3.435-5.845q0-5.127,4.819-5.332,4.307-.205,4.307,3.9a5.2,5.2,0,0,1-.205,1.436,4.319,4.319,0,0,0-.1.718q.1,1.641,2.769,1.641,6.768,0,13.33-5.229a32.256,32.256,0,0,0,9.844-13.228Zm5.127,1.846,2.769,1.333V-19.072L94.849,0h-52.5L40.093-2.769H88.9L75.571-18.252Z" transform="translate(84.519 418)" fill="url(#linear-gradient)"/>
    <path id="Path_89049" data-name="Path 89049" d="M31.25-61.875Q12.109-70.156,12.109-83.2a20.368,20.368,0,0,1,5.039-13.984q5.039-5.7,18.711-12.891a106.072,106.072,0,0,0,13.2-7.891l2.422-1.8q1.719-1.172,1.641-2.109a.859.859,0,0,0-.625-.859l-1.172-.547q-1.8-.781-1.8-3.516,0-4.531,4.3-4.531a4.876,4.876,0,0,1,3.828,2.188,7.763,7.763,0,0,1,1.719,4.922q0,6.8-14.062,14.922l-9.531,5.547q-11.094,6.406-11.094,15a11.149,11.149,0,0,0,3.047,7.93q3.047,3.242,11.016,7.07a70.242,70.242,0,0,0,12.188,4.688q18.125-5.391,18.125-18.125a11.721,11.721,0,0,0-4.1-9.023,14.421,14.421,0,0,0-10.039-3.711q-7.734,0-10.547,6.484-.937,2.266-2.187,2.266-2.422,0-2.422-3.906a9.286,9.286,0,0,1,4.023-7.617,16.01,16.01,0,0,1,10.039-3.086,22.985,22.985,0,0,1,15.508,5.469A16.972,16.972,0,0,1,75.7-86.953a17.7,17.7,0,0,1-4.062,11.484q-4.063,5-13.672,10.234a6.845,6.845,0,0,1,1.016.469L62.656-63.2q.156.078.859.391,16.562-8.125,16.563-22.109a15.307,15.307,0,0,0-1.211-6.445,54.415,54.415,0,0,0-5.43-8.242,8.97,8.97,0,0,1-.7-.859,18.262,18.262,0,0,1,9.219,16.484,20.951,20.951,0,0,1-4.609,12.656,29.789,29.789,0,0,1-11.953,9.453,38.618,38.618,0,0,1,14.453,12.93A30.861,30.861,0,0,1,85-31.8,25.519,25.519,0,0,1,74.57-10.7Q64.141-2.578,47.578-2.578q-18.438,0-30.234-8.555T5.547-33.047a23.526,23.526,0,0,1,5.742-15.781q5.742-6.719,18.477-12.422ZM46.563-55Q26.016-47.109,26.016-32.5q0,11.25,10.547,20.078v.625a24.5,24.5,0,0,1-9.141-8.945,23.275,23.275,0,0,1-3.359-12.07q0-16.172,20.234-23.047l-7.734-2.5Q18.75-49.531,18.75-33.516q0,11.641,8.242,18.555T49.141-8.047q10.859,0,17.148-5.391t6.289-14.687a21.259,21.259,0,0,0-5.9-15q-5.9-6.328-18.633-11.328Zm13.594-75.234q4.062,3.75,4.063,7.891,0,7.813-11.094,14.766l-.781.469H49.219q12.891-7.656,12.891-15.078,0-3.281-2.734-7.344ZM78.438-54.766a21.462,21.462,0,0,1,8.984,9.414,29.713,29.713,0,0,1,3.516,14.18q0,15.469-11.68,25T48.516,3.359Q30,3.359,19.063-6.25v-.391l1.172.781A42.9,42.9,0,0,0,32.7-.312,63.411,63.411,0,0,0,48.281,1.328q18.438,0,29.531-8.984T88.906-31.719a26.925,26.925,0,0,0-6.094-17.5L79.141-53.75Q79.062-53.828,78.438-54.766ZM66.8-89.219q-4.453-4.766-9.687-4.766a10.655,10.655,0,0,0-9.453,4.766H46.484q3.359-6.8,10.625-6.8,7.031,0,10.391,6.8Zm-28.2-8.75q-7.578,5.234-7.578,10.938a10.327,10.327,0,0,0,3.75,8.359l-.469.547q-5.234-4.375-5.234-9.922,0-6.016,9.531-12.422Z" transform="translate(165 418)" fill="url(#linear-gradient)"/>
  </g>
</svg>
