<svg xmlns="http://www.w3.org/2000/svg" width="40" height="36" viewBox="0 0 40 36">
  <g id="accommodation" transform="translate(-0.074 -0.1)">
    <g id="Layer_1" transform="translate(0.074 0.1)">
      <path id="Path_102643" data-name="Path 102643" d="M8.5,32.262a.65.65,0,0,1-.6-.605v-4.84A2.019,2.019,0,0,1,9.91,24.8h20.5a2.019,2.019,0,0,1,2.01,2.017v4.84a.65.65,0,0,1-.6.605H8.5Zm1.306-6.151a.688.688,0,0,0-.7.706v4.235H31.012V26.817a.688.688,0,0,0-.7-.706H9.809Z" transform="translate(-0.035 0.108)" fill="#2d0e00"/>
      <path id="Path_102644" data-name="Path 102644" d="M8.8,28.91c-.2,0-.3,0-.4-.2s-.2-.3-.2-.4a.65.65,0,0,1,.6-.605H31.311a.605.605,0,0,1,0,1.21Z" transform="translate(-0.033 0.132)" fill="#2d0e00"/>
      <path id="Path_102645" data-name="Path 102645" d="M10.2,26.173a.65.65,0,0,1-.6-.605V18.812A1.513,1.513,0,0,1,11.007,17.4H29.295A1.357,1.357,0,0,1,30.6,18.812v6.756a.65.65,0,0,1-.6.605Zm.6-1.21H29.295V18.711H10.806v6.252Z" transform="translate(-0.026 0.045)" fill="#2d0e00"/>
      <path id="Path_102646" data-name="Path 102646" d="M12.5,26.139a.65.65,0,0,1-.6-.605V23.517A2.019,2.019,0,0,1,13.91,21.5h3.819a2.019,2.019,0,0,1,2.01,2.017v2.017c0,.2,0,.3-.2.4a.761.761,0,0,1-.4.2H12.5ZM13.91,22.71a.794.794,0,0,0-.8.807v1.412h5.327V23.517a.794.794,0,0,0-.8-.807H13.91Z" transform="translate(-0.016 0.08)" fill="#2d0e00"/>
      <path id="Path_102647" data-name="Path 102647" d="M21,26.139a.65.65,0,0,1-.6-.605V23.517A2.019,2.019,0,0,1,22.41,21.5h3.819a2.019,2.019,0,0,1,2.01,2.017v2.017c0,.2,0,.3-.2.4a.761.761,0,0,1-.4.2H21ZM22.41,22.71a.794.794,0,0,0-.8.807v1.412h5.327V23.517a.794.794,0,0,0-.8-.807H22.41Z" transform="translate(0.025 0.08)" fill="#2d0e00"/>
      <path id="Path_102648" data-name="Path 102648" d="M4.6,35.976a.65.65,0,0,1-.6-.605V15.505c0-.2,0-.3.2-.4s.3-.2.4-.2a.65.65,0,0,1,.6.605V34.766H34.85V15.505a.6.6,0,1,1,1.206,0V35.371a.65.65,0,0,1-.6.605Z" transform="translate(-0.054 0.024)" fill="#2d0e00"/>
      <path id="Path_102649" data-name="Path 102649" d="M2.11,17.848A2.1,2.1,0,0,1,.5,17.041a1.934,1.934,0,0,1-.4-1.513,1.574,1.574,0,0,1,.8-1.311L18.892.5A1.751,1.751,0,0,1,20.1.1,1.927,1.927,0,0,1,21.3.5L39.292,14.218a2.068,2.068,0,0,1,.4,2.824,2.1,2.1,0,0,1-1.608.807,1.6,1.6,0,0,1-1.206-.4L20.1,4.638,3.316,17.445a1.751,1.751,0,0,1-1.206.4ZM20.1,3.226a.6.6,0,0,1,.4.1L37.684,16.436a.766.766,0,0,0,.5.2.6.6,0,0,0,.6-.3.766.766,0,0,0,0-1.008L20.5,1.512c-.1,0-.3-.1-.4-.1a.6.6,0,0,0-.4.1L1.708,15.327a.675.675,0,0,0-.1,1.008.607.607,0,0,0,.6.3c.3,0,.3,0,.4-.1L19.7,3.327C19.8,3.327,19.9,3.226,20.1,3.226Z" transform="translate(-0.074 -0.1)" fill="#2d0e00"/>
      <path id="Path_102650" data-name="Path 102650" d="M16.9,16.144a.65.65,0,0,1-.6-.605V11.505a.65.65,0,0,1,.6-.605h6.231a.65.65,0,0,1,.6.605v4.034a.65.65,0,0,1-.6.605H16.9Zm.6-1.21h5.025V12.11H17.506Z" transform="translate(0.005 -0.009)" fill="#2d0e00"/>
    </g>
  </g>
</svg>
