<svg id="Group_505" data-name="Group 505" xmlns="http://www.w3.org/2000/svg" width="16.083" height="16.078" viewBox="0 0 16.083 16.078">
  <path id="Path_1271" data-name="Path 1271" d="M161.666,151h-7.538a.487.487,0,0,0-.088-.026,4.672,4.672,0,0,1-4-3.359c-.083-.289-.125-.59-.186-.885v-7.537c.01-.035.02-.069.029-.1a8.283,8.283,0,0,1,.292-1.164A4.571,4.571,0,0,1,154,134.958a4.015,4.015,0,0,1,.564-.032q3.336,0,6.673,0a4.5,4.5,0,0,1,2.668.821,4.6,4.6,0,0,1,2.033,3.944c0,2.177,0,4.353,0,6.53a4.683,4.683,0,0,1-.76,2.656,4.564,4.564,0,0,1-2.628,1.94C162.262,150.9,161.961,150.941,161.666,151Zm3.016-8.035c0-1.094,0-2.188,0-3.281a3.694,3.694,0,0,0-.079-.794,3.406,3.406,0,0,0-3.4-2.712q-3.3,0-6.6,0a3.515,3.515,0,0,0-.793.085,3.4,3.4,0,0,0-2.694,3.417q0,3.282,0,6.563a3.632,3.632,0,0,0,.077.779,3.4,3.4,0,0,0,3.368,2.717q3.337.014,6.674,0a3.343,3.343,0,0,0,2.807-1.435,3.386,3.386,0,0,0,.64-2.044C164.684,145.165,164.682,144.066,164.682,142.967Z" transform="translate(-149.856 -134.924)" fill="#481f0d"/>
  <path id="Path_1273" data-name="Path 1273" d="M252.78,233.485a4.334,4.334,0,1,1-4.334-4.329A4.34,4.34,0,0,1,252.78,233.485Zm-1.256,0a3.078,3.078,0,1,0-3.076,3.079A3.1,3.1,0,0,0,251.525,233.487Z" transform="translate(-240.406 -225.45)" fill="#481f0d"/>
  <path id="Path_1274" data-name="Path 1274" d="M450.79,211.594a.627.627,0,1,1-.624.627A.622.622,0,0,1,450.79,211.594Z" transform="translate(-438.355 -208.579)" fill="#481f0d"/>
</svg>
