<svg id="Group_73258" data-name="Group 73258" xmlns="http://www.w3.org/2000/svg" width="35.214" height="35.214" viewBox="0 0 35.214 35.214">
  <path id="Path_91938" data-name="Path 91938" d="M3.074,0A3.074,3.074,0,1,1,0,3.074,3.074,3.074,0,0,1,3.074,0Z" transform="translate(13.258 8.99) rotate(-45)" fill="#54210b"/>
  <path id="Path_73363" data-name="Path 73363" d="M32.537,22.266a49.6,49.6,0,0,1-18.026,0,.921.921,0,1,0-.335,1.811,51.426,51.426,0,0,0,6.1.749,1.464,1.464,0,0,1,1.353,1.638L21.453,28a30.261,30.261,0,0,1-1.677,7.082l-1.118,2.99a.922.922,0,0,0,1.727.648h0l.274-.559c.894-1.906,1.727-3.857,2.487-5.83a.414.414,0,0,1,.771,0c.76,1.973,1.593,3.913,2.487,5.836l.285.609h0a.917.917,0,0,0,.827.559.894.894,0,0,0,.319-.061A.917.917,0,0,0,28.4,38.09L27.277,35.1A30.558,30.558,0,0,1,25.6,28.018l-.173-1.548a1.459,1.459,0,0,1,1.353-1.627,51.709,51.709,0,0,0,6.054-.738.967.967,0,0,0,.8-.933.922.922,0,0,0-1.1-.906Z" transform="translate(-5.919 -9.813)" fill="#54210b"/>
  <path id="Path_73364" data-name="Path 73364" d="M17.607,0A17.607,17.607,0,1,0,35.214,17.607,17.607,17.607,0,0,0,17.607,0Zm0,33.537a15.93,15.93,0,1,1,15.93-15.93,15.93,15.93,0,0,1-15.93,15.93Z" transform="translate(0 0)" fill="#54210b"/>
</svg>
