<svg xmlns="http://www.w3.org/2000/svg" width="859.124" height="859.122" viewBox="0 0 859.124 859.122">
  <path id="Path_102608" data-name="Path 102608" d="M621.162,980.809a5.639,5.639,0,1,0,5.212,3.483A5.607,5.607,0,0,0,621.162,980.809Zm-10.416,4.316a5.638,5.638,0,1,0,5.21,3.482A5.61,5.61,0,0,0,610.746,985.124ZM767.014,920.4a5.639,5.639,0,1,0,5.212,3.481A5.616,5.616,0,0,0,767.014,920.4Zm-135.435,56.1a5.639,5.639,0,1,0,5.212,3.482A5.64,5.64,0,0,0,631.579,976.494Zm174.379,79.933a5.636,5.636,0,1,0,5.212-3.481A5.637,5.637,0,0,0,805.959,1056.427ZM642,972.179a5.639,5.639,0,1,0,5.211,3.481A5.617,5.617,0,0,0,642,972.179ZM967.214,696.588A5.635,5.635,0,1,0,962,700.07,5.638,5.638,0,0,0,967.214,696.588Zm-187.621,129.5a5.64,5.64,0,1,0,3.05,7.368A5.615,5.615,0,0,0,779.592,826.086Zm43.626,188.67a5.637,5.637,0,1,0,5.212-3.481A5.639,5.639,0,0,0,823.219,1014.756Zm-45.787-98.674a5.639,5.639,0,1,0,5.211,3.481A5.617,5.617,0,0,0,777.432,916.081ZM790.011,830.4a5.64,5.64,0,1,0,3.05,7.366A5.615,5.615,0,0,0,790.011,830.4Zm-27.205,330.205a5.635,5.635,0,1,0,5.212-3.482A5.639,5.639,0,0,0,762.806,1160.607Zm51.783-125.016a5.632,5.632,0,1,0,5.211-3.482A5.639,5.639,0,0,0,814.589,1035.591Zm4.316-10.417a5.631,5.631,0,1,0,5.211-3.483A5.638,5.638,0,0,0,818.9,1025.174ZM721.559,904.6a28.093,28.093,0,1,0-28.093-28.094A28.093,28.093,0,0,0,721.559,904.6Zm0-46.624a18.531,18.531,0,1,1-18.53,18.53A18.551,18.551,0,0,1,721.559,857.977Zm-133.8-99.147a5.639,5.639,0,1,0-3.051-7.366A5.613,5.613,0,0,0,587.754,758.83Zm222.519,287.179a5.633,5.633,0,1,0,5.212-3.481A5.639,5.639,0,0,0,810.273,1046.009ZM787.851,911.765a5.639,5.639,0,1,0,5.21,3.481A5.612,5.612,0,0,0,787.851,911.765Zm13.792,155.081a5.636,5.636,0,1,0,5.212-3.482A5.637,5.637,0,0,0,801.643,1066.846Zm-4.316,10.418a5.633,5.633,0,1,0,5.212-3.483A5.64,5.64,0,0,0,797.327,1077.264Zm-92.82-130.977a5.639,5.639,0,1,0,5.21,3.482A5.619,5.619,0,0,0,704.507,946.287Zm10.416-4.314a5.638,5.638,0,1,0,5.213,3.481A5.613,5.613,0,0,0,714.924,941.973Zm-20.836,8.63a5.639,5.639,0,1,0,5.212,3.481A5.634,5.634,0,0,0,694.087,950.6Zm62.51-25.892a5.638,5.638,0,1,0,5.211,3.481A5.609,5.609,0,0,0,756.6,924.711Zm10.524,225.478a5.635,5.635,0,1,0,5.212-3.482A5.637,5.637,0,0,0,767.121,1150.189Zm8.63-20.837a5.632,5.632,0,1,0,5.21-3.481A5.64,5.64,0,0,0,775.751,1129.352ZM746.177,929.027a5.638,5.638,0,1,0,5.212,3.481A5.615,5.615,0,0,0,746.177,929.027Zm23-107.255a5.638,5.638,0,1,0,3.052,7.366A5.611,5.611,0,0,0,769.174,821.772Zm2.263,318a5.632,5.632,0,1,0,5.21-3.481A5.637,5.637,0,0,0,771.437,1139.77ZM735.761,933.341a5.64,5.64,0,1,0,5.21,3.482A5.618,5.618,0,0,0,735.761,933.341Zm-10.418,4.316a5.639,5.639,0,1,0,5.21,3.481A5.624,5.624,0,0,0,725.343,937.657Zm-72.925,30.206a5.639,5.639,0,1,0,5.21,3.483A5.611,5.611,0,0,0,652.418,967.863ZM788.7,1098.1a5.631,5.631,0,1,0,5.211-3.482A5.636,5.636,0,0,0,788.7,1098.1ZM683.671,954.917a5.64,5.64,0,1,0,5.21,3.483A5.609,5.609,0,0,0,683.671,954.917Zm100.71,153.6a5.637,5.637,0,1,0,5.212-3.482A5.64,5.64,0,0,0,784.381,1108.517Zm8.632-20.837a5.632,5.632,0,1,0,5.211-3.481A5.639,5.639,0,0,0,793.013,1087.68Zm-203.1-82.647a5.639,5.639,0,1,0-5.211-3.481A5.613,5.613,0,0,0,589.914,1005.033Zm83.338-45.8a5.64,5.64,0,1,0,5.212,3.482A5.622,5.622,0,0,0,673.252,959.232Zm96.642,62.06a28.093,28.093,0,1,0-19.865-8.229A28,28,0,0,0,769.895,1021.293Zm-13.1-41.2a18.533,18.533,0,1,1-5.427,13.1A18.417,18.417,0,0,1,756.79,980.1Zm-93.956-16.547a5.639,5.639,0,1,0,5.212,3.482A5.634,5.634,0,0,0,662.834,963.548Zm117.233,155.387a5.631,5.631,0,1,0,5.21-3.483A5.638,5.638,0,0,0,780.067,1118.936Zm-179.74-129.5a5.639,5.639,0,1,0,5.211,3.482A5.607,5.607,0,0,0,600.327,989.44Zm207.418-318a5.64,5.64,0,1,0-3.051,7.366A5.639,5.639,0,0,0,807.746,671.437ZM777.54,598.512a5.642,5.642,0,1,0-3.052,7.366A5.642,5.642,0,0,0,777.54,598.512Zm226.725-20.836a5.631,5.631,0,1,0,5.21-3.482A5.637,5.637,0,0,0,1004.264,577.676Zm6.1,14.732a5.634,5.634,0,1,0-5.212,3.482A5.637,5.637,0,0,0,1010.367,592.408ZM886.586,739.573a28.093,28.093,0,1,0-28.093-28.093A28.094,28.094,0,0,0,886.586,739.573Zm0-46.624a18.531,18.531,0,1,1-18.53,18.531A18.552,18.552,0,0,1,886.586,692.949Zm110.835-69.287a5.632,5.632,0,1,0-5.211,3.482A5.637,5.637,0,0,0,997.421,623.663Zm4.316-10.417a5.636,5.636,0,1,0-5.212,3.481A5.64,5.64,0,0,0,1001.737,613.245ZM773.224,588.093a5.641,5.641,0,1,0-3.052,7.367A5.64,5.64,0,0,0,773.224,588.093ZM799.115,650.6a5.641,5.641,0,1,0-3.052,7.367A5.641,5.641,0,0,0,799.115,650.6Zm4.316,10.418a5.643,5.643,0,1,0-3.052,7.366A5.641,5.641,0,0,0,803.431,661.019ZM794.8,640.183a5.642,5.642,0,1,0-3.05,7.366A5.638,5.638,0,0,0,794.8,640.183Zm-12.946-31.254a5.64,5.64,0,1,0-3.05,7.367A5.636,5.636,0,0,0,781.854,608.929Zm8.632,20.836a5.641,5.641,0,1,0-3.052,7.367A5.641,5.641,0,0,0,790.485,629.765Zm-4.316-10.417a5.643,5.643,0,1,0-3.052,7.366A5.64,5.64,0,0,0,786.169,619.348ZM886.805,841.036A34.993,34.993,0,0,0,855.8,859.881c-.025.045-.042.093-.067.14-.276.514-.507,1.04-.754,1.564s-.5,1.014-.716,1.539c-.208.506-.377,1.021-.56,1.533-.2.565-.42,1.124-.595,1.7-.153.5-.263,1.016-.392,1.525-.152.6-.319,1.189-.439,1.8-.114.571-.179,1.148-.265,1.723-.081.554-.184,1.1-.238,1.661-.1,1.046-.151,2.095-.159,3.146,0,.1-.015.2-.015.3s.012.182.014.275c.008,1.059.056,2.115.16,3.168.054.557.157,1.1.237,1.645.085.58.151,1.163.266,1.74.12.607.285,1.2.436,1.79.131.512.243,1.027.4,1.533.174.578.391,1.135.595,1.7.183.514.352,1.029.56,1.535.218.526.473,1.03.716,1.542s.48,1.049.752,1.561c.265.492.565.961.85,1.438.3.5.584,1.009.911,1.5.355.531.747,1.029,1.13,1.538.3.4.583.819.907,1.213a35.026,35.026,0,0,0,4.885,4.885c.394.324.809.605,1.214.909.509.381,1.007.775,1.535,1.128.492.329,1,.612,1.5.914.476.285.942.583,1.432.845.517.277,1.047.511,1.574.758.507.24,1.007.494,1.528.71s1.036.383,1.558.57c.555.2,1.1.414,1.675.586.52.157,1.047.271,1.572.4.582.148,1.155.309,1.748.428s1.22.191,1.832.278c.516.075,1.027.173,1.552.224,1.147.114,2.3.174,3.45.174s2.3-.061,3.45-.174c.525-.051,1.033-.149,1.55-.224.611-.087,1.226-.159,1.835-.278.591-.119,1.165-.28,1.745-.427.525-.132,1.054-.247,1.574-.4.569-.172,1.119-.386,1.675-.586.521-.187,1.044-.358,1.558-.57s1.021-.47,1.528-.71c.526-.247,1.057-.481,1.573-.758.489-.261.953-.559,1.427-.843.506-.3,1.016-.587,1.508-.917.528-.352,1.024-.744,1.53-1.124.406-.3.823-.587,1.219-.912a35.049,35.049,0,0,0,4.885-4.885c.323-.394.6-.809.907-1.213.383-.509.775-1.007,1.13-1.538.327-.489.61-1,.91-1.5.285-.477.585-.946.85-1.438s.487-1,.727-1.508c.014-.03.028-.061.042-.089.22-.467.459-.92.658-1.4a34.963,34.963,0,0,0-32.063-48.963Zm24.742,40.23c-.008.036-.011.073-.017.109-.12.621-.283,1.234-.45,1.846-.056.2-.1.41-.157.61-.141.475-.321.94-.492,1.407-.121.331-.229.669-.364.993s-.3.652-.453.979-.305.66-.473.98A25.42,25.42,0,0,1,863.333,866.3c.207-.5.453-.976.688-1.457.062-.12.112-.246.176-.364.1-.194.229-.38.338-.573.31-.54.622-1.079.97-1.592.028-.044.064-.084.093-.128a25.439,25.439,0,0,1,18.3-10.957c.035,0,.069-.011.1-.015a25.727,25.727,0,0,1,5.18,0l.1.015a25.437,25.437,0,0,1,18.284,10.935c.034.051.076.1.11.151.343.508.649,1.04.956,1.572.114.2.243.393.352.595.226.42.42.858.622,1.292.157.336.329.67.47,1.014.129.311.232.635.349.952.176.481.36.961.506,1.449.056.184.093.374.145.559.172.629.338,1.258.462,1.894,0,.019,0,.036.008.055A25.63,25.63,0,0,1,911.547,881.267Zm94.5-278.44a5.632,5.632,0,1,0-5.211,3.482A5.637,5.637,0,0,0,1006.051,602.827ZM954.267,727.842a5.633,5.633,0,1,0-5.21,3.482A5.638,5.638,0,0,0,954.267,727.842Zm25.892-62.508a5.632,5.632,0,1,0-5.211,3.482A5.638,5.638,0,0,0,980.159,665.334ZM949.953,738.26a5.631,5.631,0,1,0-5.211,3.482A5.638,5.638,0,0,0,949.953,738.26Zm43.152-104.179a5.634,5.634,0,1,0-5.211,3.481A5.639,5.639,0,0,0,993.105,634.081Zm-34.522,83.343a5.634,5.634,0,1,0-5.211,3.481A5.637,5.637,0,0,0,958.583,717.424Zm12.946-31.254a5.632,5.632,0,1,0-5.212,3.483A5.637,5.637,0,0,0,971.529,686.17Zm-8.63,20.836a5.634,5.634,0,1,0-5.212,3.482A5.638,5.638,0,0,0,962.9,707.006Zm12.946-31.253a5.634,5.634,0,1,0-5.211,3.481A5.639,5.639,0,0,0,975.845,675.752Zm-38.837,93.761A5.633,5.633,0,1,0,931.8,773,5.638,5.638,0,0,0,937.007,769.514ZM758.756,817.456a5.64,5.64,0,1,0,3.052,7.366A5.612,5.612,0,0,0,758.756,817.456ZM988.79,644.5a5.633,5.633,0,1,0-5.212,3.482A5.638,5.638,0,0,0,988.79,644.5Zm-56.1,135.434a5.631,5.631,0,1,0-5.211,3.482A5.638,5.638,0,0,0,932.692,779.932Zm51.784-125.015a5.635,5.635,0,1,0-5.211,3.481A5.639,5.639,0,0,0,984.475,654.917ZM941.323,759.1a5.633,5.633,0,1,0-5.212,3.482A5.639,5.639,0,0,0,941.323,759.1Zm4.314-10.417a5.634,5.634,0,1,0-5.21,3.481A5.638,5.638,0,0,0,945.637,748.678ZM654.576,774.3a5.639,5.639,0,1,0,3.052,7.367A5.622,5.622,0,0,0,654.576,774.3Zm-10.416-4.315a5.639,5.639,0,1,0,3.05,7.366A5.623,5.623,0,0,0,644.16,769.988Zm20.835,8.63a5.64,5.64,0,1,0,3.052,7.367A5.61,5.61,0,0,0,664.994,778.618Zm-31.253-12.945a5.639,5.639,0,1,0,3.051,7.366A5.622,5.622,0,0,0,633.741,765.673Zm41.672,17.261a5.639,5.639,0,1,0,3.052,7.367A5.619,5.619,0,0,0,675.413,782.934ZM612.9,757.043a5.639,5.639,0,1,0,3.052,7.366A5.616,5.616,0,0,0,612.9,757.043Zm10.418,4.315a5.639,5.639,0,1,0,3.052,7.367A5.623,5.623,0,0,0,623.323,761.358Zm83.344,34.522a5.639,5.639,0,1,0,3.052,7.367A5.619,5.619,0,0,0,706.666,795.88Zm31.255,12.946a5.639,5.639,0,1,0,3.05,7.366A5.616,5.616,0,0,0,737.921,808.826Zm10.417,4.314a5.639,5.639,0,1,0,3.052,7.368A5.6,5.6,0,0,0,748.338,813.14ZM727.5,804.51a5.64,5.64,0,1,0,3.05,7.366A5.609,5.609,0,0,0,727.5,804.51Zm-31.253-12.946a5.64,5.64,0,1,0,3.05,7.367A5.617,5.617,0,0,0,696.249,791.564Zm20.835,8.632a5.639,5.639,0,1,0,3.052,7.367A5.619,5.619,0,0,0,717.084,800.2ZM685.831,787.25a5.639,5.639,0,1,0,3.05,7.366A5.626,5.626,0,0,0,685.831,787.25Zm-83.343-34.522a5.639,5.639,0,1,0,3.05,7.366A5.617,5.617,0,0,0,602.488,752.728ZM846.583,765.2a5.641,5.641,0,1,0-3.051,7.367A5.641,5.641,0,0,0,846.583,765.2Zm-17.262-41.672a5.641,5.641,0,1,0-3.051,7.367A5.638,5.638,0,0,0,829.321,723.526Zm-4.315-10.417a5.64,5.64,0,1,0-3.052,7.366A5.641,5.641,0,0,0,825.007,713.109Zm285.842-126.543a15.907,15.907,0,1,0,12.2-5.683A15.907,15.907,0,0,0,1110.848,586.566Zm7.324,6.147a6.342,6.342,0,0,1,4.871-2.268,6.265,6.265,0,0,1,4.07,1.485,6.345,6.345,0,0,1-4.087,11.206,6.346,6.346,0,0,1-4.854-10.423Zm-301.8,99.56a5.641,5.641,0,1,0-3.052,7.367A5.642,5.642,0,0,0,816.377,692.273Zm186.9,39.449a28.093,28.093,0,1,0,19.865,8.228A28,28,0,0,0,1003.277,731.722Zm13.1,41.2a18.53,18.53,0,1,1,5.428-13.1A18.406,18.406,0,0,1,1016.381,772.919ZM833.637,733.944a5.642,5.642,0,1,0-3.051,7.367A5.641,5.641,0,0,0,833.637,733.944Zm-12.946-31.254a5.64,5.64,0,1,0-3.051,7.367A5.639,5.639,0,0,0,820.691,702.691Zm17.262,41.672a5.641,5.641,0,1,0-3.052,7.367A5.64,5.64,0,0,0,837.953,744.362ZM758.491,581.991a5.642,5.642,0,1,0,3.051-7.366A5.638,5.638,0,0,0,758.491,581.991Zm11.4,205.919a28.095,28.095,0,1,0-19.865-8.23A28,28,0,0,0,769.895,787.91Zm-13.1-41.2a18.531,18.531,0,1,1-5.427,13.1A18.411,18.411,0,0,1,756.79,746.712Zm94.109,28.9a5.643,5.643,0,1,0-3.052,7.366A5.64,5.64,0,0,0,850.9,775.617Zm-23.364,228.721a5.632,5.632,0,1,0,5.211-3.481A5.637,5.637,0,0,0,827.534,1004.337ZM812.061,681.855a5.642,5.642,0,1,0-3.052,7.367A5.64,5.64,0,0,0,812.061,681.855Zm30.206,72.926a5.642,5.642,0,1,0-3.051,7.366A5.637,5.637,0,0,0,842.267,754.781ZM1045.67,948.5a5.639,5.639,0,1,0-3.051-7.367A5.622,5.622,0,0,0,1045.67,948.5ZM521.585,923.012c.464,0,.932-.022,1.4-.062a15.908,15.908,0,0,0-1.368-31.756q-.7,0-1.405.062a15.909,15.909,0,0,0,1.369,31.756Zm-.537-22.23c.193-.017.384-.025.573-.026a6.346,6.346,0,0,1,.535,12.667c-.193.017-.383.026-.571.026a6.346,6.346,0,0,1-.537-12.667Zm-.724-9.7a15.907,15.907,0,1,0-15.908-15.908A15.908,15.908,0,0,0,520.324,891.083Zm0-22.252a6.345,6.345,0,1,1-6.345,6.344A6.351,6.351,0,0,1,520.324,868.831Zm.123-9.726q.707.063,1.406.062a15.908,15.908,0,0,0,1.368-31.756q-.707-.063-1.4-.062a15.908,15.908,0,0,0-1.37,31.756Zm1.37-22.194c.188,0,.378.009.569.027a6.346,6.346,0,0,1-.534,12.667c-.19,0-.38-.009-.571-.026a6.346,6.346,0,0,1,.535-12.667Zm6.6,117.551a15.892,15.892,0,1,0-2.779.244A15.905,15.905,0,0,0,528.421,954.463ZM519.409,939.9a6.35,6.35,0,0,1,5.147-7.349,6.519,6.519,0,0,1,1.122-.1,6.348,6.348,0,1,1-6.269,7.449Zm9.623-144.106a15.91,15.91,0,1,0-11.248-19.482A15.959,15.959,0,0,0,529.032,795.791Zm-2.011-17.008a6.344,6.344,0,1,1,.634,4.815A6.353,6.353,0,0,1,527.021,778.784Zm-3.663,48.478a15.909,15.909,0,1,0-12.9-18.427A15.982,15.982,0,0,0,523.358,827.261ZM519.872,810.5a6.36,6.36,0,1,1,5.147,7.348A6.327,6.327,0,0,1,519.872,810.5Zm17.556-45.56a15.91,15.91,0,1,0-9.506-20.389A15.87,15.87,0,0,0,537.427,764.936Zm-.52-17.12a6.356,6.356,0,1,1,3.791,8.134A6.368,6.368,0,0,1,536.907,747.816Zm11.573-12.887a15.909,15.909,0,1,0-7.695-21.14A15.842,15.842,0,0,0,548.481,734.929Zm.971-17.1a6.38,6.38,0,0,1,5.762-3.667,6.352,6.352,0,0,1,5.741,9.029,6.379,6.379,0,0,1-5.762,3.668,6.282,6.282,0,0,1-2.671-.6A6.354,6.354,0,0,1,549.452,717.831ZM536.578,985.383a15.889,15.889,0,1,0-4.128.546A15.908,15.908,0,0,0,536.578,985.383Zm-10.246-13.724a6.324,6.324,0,1,1,6.118,4.708A6.35,6.35,0,0,1,526.332,971.659Zm135.992,194.791a15.906,15.906,0,1,0-12.194,5.683A15.909,15.909,0,0,0,662.324,1166.449ZM655,1160.3a6.341,6.341,0,0,1-4.87,2.268,6.347,6.347,0,0,1-4.854-10.423,6.344,6.344,0,0,1,4.873-2.267,6.254,6.254,0,0,1,4.067,1.483A6.353,6.353,0,0,1,655,1160.3Zm-17.094-37a15.908,15.908,0,1,0,0,22.5A15.852,15.852,0,0,0,637.906,1123.3Zm-6.762,15.735a6.342,6.342,0,1,1,1.86-4.487A6.3,6.3,0,0,1,631.144,1139.039Zm-13.8-38.349a15.908,15.908,0,1,0-1.961,22.411A15.874,15.874,0,0,0,617.343,1100.69Zm-8.107,15.086a6.26,6.26,0,0,1-4.07,1.485,6.345,6.345,0,0,1-4.089-11.2,6.267,6.267,0,0,1,4.072-1.486,6.345,6.345,0,0,1,4.087,11.206Zm-61.839-100.3a15.893,15.893,0,1,0-5.438.963A15.907,15.907,0,0,0,547.4,1015.473ZM536,1002.7a6.327,6.327,0,1,1,5.964,4.179A6.353,6.353,0,0,1,536,1002.7Zm152.452,182.2a15.905,15.905,0,1,0-13.045,6.784A15.906,15.906,0,0,0,688.447,1184.891Zm-7.833-5.484a6.364,6.364,0,0,1-5.212,2.706,6.344,6.344,0,0,1-5.183-9.984,6.366,6.366,0,0,1,5.214-2.707,6.346,6.346,0,0,1,5.181,9.984Zm-81.785-103.034a15.908,15.908,0,1,0-3.906,22.153A15.888,15.888,0,0,0,598.829,1076.372Zm-6.781,10.225a6.347,6.347,0,1,1-1.052-4.741A6.3,6.3,0,0,1,592.048,1086.6ZM560.8,1044.506a15.9,15.9,0,1,0-6.714,1.494A15.905,15.905,0,0,0,560.8,1044.506Zm-12.474-11.735a6.352,6.352,0,0,1,5.743-9.03,6.376,6.376,0,0,1,5.758,3.668,6.35,6.35,0,0,1-5.741,9.028A6.38,6.38,0,0,1,548.327,1032.771Zm34.177,17.761a15.911,15.911,0,1,0-5.822,21.73A15.9,15.9,0,0,0,582.5,1050.532Zm-7.646,9.6a6.354,6.354,0,0,1-6.113,4.707,6.347,6.347,0,0,1-3.189-11.842,6.237,6.237,0,0,1,3.161-.853,6.373,6.373,0,0,1,5.508,3.177A6.3,6.3,0,0,1,574.858,1060.127ZM733.015,559.91a15.91,15.91,0,1,0-14.428-9.188A15.846,15.846,0,0,0,733.015,559.91Zm-5.974-18.08a6.36,6.36,0,0,1,5.953-4.18,6.377,6.377,0,0,1,5.76,3.669,6.351,6.351,0,0,1-5.74,9.029,6.377,6.377,0,0,1-5.762-3.668A6.305,6.305,0,0,1,727.042,541.83ZM872.01,510.247a15.908,15.908,0,0,0,31.815,0c0-.217-.056-.419-.064-.635a15.806,15.806,0,0,0,.174-1.73,16.01,16.01,0,1,0-32.019,0,15.547,15.547,0,0,0,.167,1.646C872.072,509.771,872.01,510,872.01,510.247Zm15.908-6.345a6.333,6.333,0,0,1,6.258,5.489,6.426,6.426,0,0,1-12.513-.041A6.335,6.335,0,0,1,887.918,503.9Zm-63.639,27.588a15.909,15.909,0,1,0-15.648-13.148A15.95,15.95,0,0,0,824.279,531.489ZM823.2,509.331a6.5,6.5,0,0,1,1.122-.1,6.347,6.347,0,0,1,1.082,12.6,6.47,6.47,0,0,1-1.12.1,6.347,6.347,0,0,1-1.083-12.6Zm32.777,18.1q.7,0,1.406-.062a15.908,15.908,0,0,0-1.368-31.754q-.7,0-1.405.062a15.908,15.908,0,0,0,1.368,31.755Zm-.535-22.229q.29-.024.574-.025a6.345,6.345,0,0,1,.534,12.666c-.193.017-.383.025-.573.025a6.346,6.346,0,0,1-.535-12.667Zm-62.37,33.09A15.91,15.91,0,1,0,777.712,526.5,15.934,15.934,0,0,0,793.067,538.293Zm-5.484-19.084a6.3,6.3,0,0,1,3.852-2.956,6.414,6.414,0,0,1,1.653-.22,6.348,6.348,0,0,1,1.633,12.478,6.429,6.429,0,0,1-1.653.22,6.349,6.349,0,0,1-5.484-9.522ZM918.448,527.6q.707.062,1.405.062a15.908,15.908,0,0,0,1.368-31.755q-.707-.062-1.4-.062a15.908,15.908,0,0,0-1.369,31.755Zm1.369-22.193c.189,0,.378.009.57.025a6.346,6.346,0,0,1-.534,12.667c-.19,0-.38-.009-.571-.025a6.346,6.346,0,0,1,.535-12.667ZM762.571,547.791a15.91,15.91,0,1,0-14.949-10.471A15.89,15.89,0,0,0,762.571,547.791ZM756.818,529.2a6.341,6.341,0,1,1,5.753,9.031,6.35,6.35,0,0,1-5.753-9.031ZM562.106,706a15.91,15.91,0,1,0-5.822-21.729A15.836,15.836,0,0,0,562.106,706Zm2.459-16.949a6.377,6.377,0,0,1,5.511-3.175,6.242,6.242,0,0,1,3.156.852,6.347,6.347,0,0,1-3.187,11.843,6.249,6.249,0,0,1-3.158-.853A6.352,6.352,0,0,1,564.566,689.051ZM948.736,531.707a15.909,15.909,0,1,0-12.9-18.427A15.971,15.971,0,0,0,948.736,531.707ZM945.25,514.94a6.328,6.328,0,0,1,6.234-5.246,6.508,6.508,0,0,1,1.117.1,6.347,6.347,0,0,1-1.083,12.6,6.5,6.5,0,0,1-1.12-.1A6.351,6.351,0,0,1,945.25,514.94Zm33.3,23.5A15.91,15.91,0,1,0,967.3,518.953,15.922,15.922,0,0,0,978.551,538.436Zm-2.011-17.01a6.347,6.347,0,0,1,6.118-4.7,6.413,6.413,0,0,1,1.651.22,6.348,6.348,0,0,1-1.631,12.478,6.388,6.388,0,0,1-1.653-.221,6.345,6.345,0,0,1-4.486-7.773ZM606.861,655.966a15.907,15.907,0,1,0-10.216-3.721A15.872,15.872,0,0,0,606.861,655.966ZM602.01,635.98a6.341,6.341,0,0,1,4.87-2.267,6.264,6.264,0,0,1,4.068,1.485,6.345,6.345,0,0,1-4.087,11.206,6.344,6.344,0,0,1-4.851-10.424ZM578.2,678.369a15.908,15.908,0,1,0-3.907-22.155A15.835,15.835,0,0,0,578.2,678.369Zm3.926-16.671a6.366,6.366,0,0,1,5.212-2.706,6.346,6.346,0,0,1,5.183,9.986,6.361,6.361,0,0,1-5.21,2.706,6.345,6.345,0,0,1-5.184-9.986Zm46.414-29.211a15.907,15.907,0,1,0-11.249-4.659A15.86,15.86,0,0,0,628.543,632.487Zm-4.489-20.394a6.345,6.345,0,1,1,0,8.974A6.306,6.306,0,0,1,624.054,612.093Zm207.8,381.826a5.632,5.632,0,1,0,5.211-3.481A5.639,5.639,0,0,0,831.85,993.919ZM704.624,574.56a15.909,15.909,0,1,0-13.791-7.956A15.842,15.842,0,0,0,704.624,574.56Zm-6.145-17.552a6.353,6.353,0,0,1,6.115-4.706,6.347,6.347,0,0,1,3.187,11.843,6.249,6.249,0,0,1-3.158.853,6.375,6.375,0,0,1-5.51-3.176A6.3,6.3,0,0,1,698.48,557.008Zm11.775,622.249a15.909,15.909,0,1,0,5.824,21.73A15.833,15.833,0,0,0,710.255,1179.257Zm-2.458,16.949a6.378,6.378,0,0,1-5.51,3.175,6.346,6.346,0,0,1-5.48-9.52,6.377,6.377,0,0,1,5.511-3.175,6.239,6.239,0,0,1,3.155.853A6.353,6.353,0,0,1,707.8,1196.206ZM652.185,610.987a15.908,15.908,0,1,0-12.193-5.682A15.844,15.844,0,0,0,652.185,610.987ZM648.1,590.219a6.266,6.266,0,0,1,4.073-1.486,6.345,6.345,0,0,1,4.085,11.206,6.267,6.267,0,0,1-4.072,1.485,6.345,6.345,0,0,1-4.087-11.205Zm269.1,635.363q-.7,0-1.405.062a15.908,15.908,0,0,0,1.37,31.756c.463,0,.932-.022,1.4-.062a15.908,15.908,0,0,0-1.368-31.756Zm.536,22.229c-.193.017-.383.026-.571.026a6.346,6.346,0,0,1-.537-12.667c.193-.017.384-.025.573-.026a6.346,6.346,0,0,1,.536,12.667Zm327.018-449.259a15.89,15.89,0,1,0,2.78-.244A15.909,15.909,0,0,0,1244.753,798.552Zm9.01,14.564a6.345,6.345,0,1,1-7.349-5.147,6.47,6.47,0,0,1,1.122-.1A6.325,6.325,0,0,1,1253.763,813.117Zm-.915,48.815a15.908,15.908,0,1,0,15.908,15.908A15.907,15.907,0,0,0,1252.848,861.932Zm0,22.252a6.345,6.345,0,1,1,6.345-6.345A6.353,6.353,0,0,1,1252.848,884.185Zm-.123,9.724q-.707-.063-1.405-.062a15.909,15.909,0,0,0-1.368,31.756q.707.063,1.4.062a15.908,15.908,0,0,0,1.369-31.756Zm-1.369,22.194c-.189,0-.378-.009-.57-.026a6.346,6.346,0,0,1,.536-12.667q.282,0,.569.026a6.346,6.346,0,0,1-.535,12.667Zm-40.29,130.913a15.909,15.909,0,1,0,5.823,21.73A15.828,15.828,0,0,0,1211.066,1047.016Zm-2.459,16.949a6.378,6.378,0,0,1-5.51,3.175,6.253,6.253,0,0,1-3.156-.851,6.347,6.347,0,0,1,3.186-11.844,6.346,6.346,0,0,1,5.48,9.521Zm41.208-138.211a15.909,15.909,0,1,0,12.9,18.429A15.982,15.982,0,0,0,1249.814,925.754Zm3.486,16.768a6.364,6.364,0,1,1-5.149-7.35A6.324,6.324,0,0,1,1253.3,942.522Zm-28.609,75.565a15.91,15.91,0,1,0,7.694,21.14A15.858,15.858,0,0,0,1224.692,1018.087Zm-.971,17.1a6.379,6.379,0,0,1-5.761,3.668,6.353,6.353,0,0,1-5.741-9.03,6.378,6.378,0,0,1,5.763-3.668,6.282,6.282,0,0,1,2.669.6A6.354,6.354,0,0,1,1223.72,1035.185Zm12.025-47.1a15.91,15.91,0,1,0,9.508,20.388A15.871,15.871,0,0,0,1235.745,988.08Zm.523,17.118a6.355,6.355,0,1,1-3.794-8.134A6.37,6.37,0,0,1,1236.268,1005.2Zm7.872-47.973a15.91,15.91,0,1,0,11.248,19.482A15.965,15.965,0,0,0,1244.14,957.225Zm2.011,17.008a6.36,6.36,0,1,1-4.485-7.771A6.349,6.349,0,0,1,1246.151,974.233ZM1251.589,830q-.7,0-1.406.062a15.909,15.909,0,0,0,1.37,31.756c.464,0,.932-.022,1.4-.062A15.908,15.908,0,0,0,1251.589,830Zm.535,22.23c-.193.017-.383.026-.571.026a6.346,6.346,0,0,1-.537-12.667c.193-.017.384-.025.573-.026a6.346,6.346,0,0,1,.535,12.667Zm-96.3-199.908a15.907,15.907,0,1,0,1.961-22.411A15.874,15.874,0,0,0,1155.829,652.325Zm8.107-15.086a6.27,6.27,0,0,1,4.072-1.484,6.346,6.346,0,0,1,4.087,11.206,6.265,6.265,0,0,1-4.07,1.485,6.346,6.346,0,0,1-4.089-11.207Zm10.407,39.406a15.91,15.91,0,1,0,3.907-22.155A15.891,15.891,0,0,0,1174.343,676.644Zm6.781-10.226a6.347,6.347,0,1,1,1.052,4.741A6.308,6.308,0,0,1,1181.125,666.418Zm55.47,101.216a15.889,15.889,0,1,0,4.127-.546A15.907,15.907,0,0,0,1236.595,767.634Zm10.245,13.722a6.325,6.325,0,1,1-6.116-4.706A6.351,6.351,0,0,1,1246.84,781.356Zm69.308,96.512-33.317-19.234a394.15,394.15,0,0,0-22.407-114.746l4.959-6.458a17.852,17.852,0,0,0-11.834-28.565l-8.01-1.055a398.093,398.093,0,0,0-64.3-96.568l10.051-37.518-37.359,10.009a398.2,398.2,0,0,0-96.346-65.1l-1.091-8.292a17.851,17.851,0,0,0-28.565-11.832l-6.461,4.959a394.061,394.061,0,0,0-114.225-23.094l-19.3-33.428-19.235,33.316A394.183,394.183,0,0,0,754.672,502.42l-6.453-4.951A17.852,17.852,0,0,0,719.654,509.3l-1.043,7.915a398.067,398.067,0,0,0-97.291,64.635L583.8,571.8l10.009,37.36a398.216,398.216,0,0,0-65.023,96.183l-7.657,1.007A17.854,17.854,0,0,0,509.3,734.919l4.531,5.9a394.031,394.031,0,0,0-23.375,115.024l-33.431,19.3,33.317,19.233a394.222,394.222,0,0,0,22.323,114.508l-4.407,5.741a17.852,17.852,0,0,0,11.835,28.565l7.038.926a398.041,398.041,0,0,0,64.8,97.649l-10.051,37.519,37.361-10.009a398.226,398.226,0,0,0,96.975,65.393l.928,7.042a17.672,17.672,0,0,0,10.87,14.163,17.937,17.937,0,0,0,6.879,1.384,17.711,17.711,0,0,0,10.817-3.713l5.464-4.193a394.1,394.1,0,0,0,114.754,23.28l19.3,33.431,19.235-33.317a394.192,394.192,0,0,0,115.209-22.57l5.749,4.409a17.711,17.711,0,0,0,10.817,3.715,17.949,17.949,0,0,0,6.879-1.384,17.673,17.673,0,0,0,10.87-14.163l.939-7.133a398.055,398.055,0,0,0,96.928-64.464l37.518,10.054-10.009-37.363a398.147,398.147,0,0,0,65.467-97.133l7.678-1.012a17.852,17.852,0,0,0,11.835-28.565l-4.62-6.021a394.045,394.045,0,0,0,23-113.956Zm-32.979-8,13.855,8-13.889,8.018c.072-3.117.118-6.242.118-9.379C1283.253,874.288,1283.2,872.08,1283.169,869.87ZM490,883.147l-13.855-8,13.889-8.02c-.072,3.119-.119,6.242-.119,9.379C489.919,878.727,489.968,880.935,490,883.147Zm762.3-164.8a8.291,8.291,0,0,1,5.5,13.262l-1.3,1.7q-2.99-7.7-6.3-15.235Zm-74.528-131.1-4.205,15.692q-5.6-5.873-11.452-11.5ZM1033.753,506.1a8.288,8.288,0,0,1,13.263,5.493l.3,2.311c-5.057-2.25-10.159-4.415-15.322-6.457ZM887.946,466.071l8.018,13.888c-3.117-.072-6.242-.119-9.378-.119-2.219,0-4.428.047-6.64.084ZM729.135,510.551a8.289,8.289,0,0,1,13.263-5.5l1.672,1.283q-7.681,2.966-15.2,6.243ZM613.017,589.528q-5.872,5.6-11.5,11.451l-4.2-15.656ZM515.8,720.879a8.2,8.2,0,0,1,6.574-5.046l1.672-.22q-3.245,7.288-6.216,14.719l-.946-1.234A8.2,8.2,0,0,1,515.8,720.879Zm5.534,312.836a8.292,8.292,0,0,1-5.5-13.263l.747-.973q2.818,7.265,5.914,14.389ZM595.4,1165.77l4.2-15.693c3.734,3.914,7.564,7.737,11.452,11.5Zm144.486,80.2a8.288,8.288,0,0,1-13.263-5.5l-.143-1.082c4.686,2.075,9.411,4.079,14.189,5.977Zm145.339,40.979-8.02-13.891c3.119.073,6.244.12,9.38.12,2.219,0,4.428-.049,6.639-.084Zm159.278-45.434a8.289,8.289,0,0,1-13.263,5.494l-1-.764q7.286-2.839,14.422-5.966Zm115.652-78.025q5.871-5.6,11.5-11.45l4.2,15.656Zm97.679-132.3a8.2,8.2,0,0,1-6.578,5.044l-1.721.227c2.161-4.886,4.248-9.808,6.216-14.793l1,1.3A8.2,8.2,0,0,1,1257.834,1031.183ZM886.586,1263.612c-213.449,0-387.1-173.654-387.1-387.1s173.656-387.1,387.1-387.1,387.1,173.654,387.1,387.1S1100.035,1263.612,886.586,1263.612Zm259.928-661.055a15.907,15.907,0,1,0,11.248,4.659A15.857,15.857,0,0,0,1146.514,602.557ZM1151,622.95a6.343,6.343,0,1,1,1.86-4.487A6.3,6.3,0,0,1,1151,622.95Zm74.776,114.592a15.892,15.892,0,1,0,5.439-.963A15.907,15.907,0,0,0,1225.775,737.542Zm11.4,12.778a6.331,6.331,0,1,1-5.962-4.179A6.307,6.307,0,0,1,1237.178,750.32Zm-24.807-41.811a15.9,15.9,0,1,0,6.712-1.494A15.906,15.906,0,0,0,1212.371,708.509Zm12.474,11.735a6.352,6.352,0,0,1-5.742,9.03,6.376,6.376,0,0,1-5.76-3.668,6.351,6.351,0,0,1,5.741-9.029A6.377,6.377,0,0,1,1224.846,720.245Zm-34.178-17.76a15.911,15.911,0,1,0,5.823-21.73A15.9,15.9,0,0,0,1190.668,702.485Zm10.6-13.449a6.247,6.247,0,0,1,3.16-.853,6.347,6.347,0,0,1,3.186,11.842,6.247,6.247,0,0,1-3.158.853,6.347,6.347,0,0,1-3.187-11.842ZM854.724,1225.412q-.707-.063-1.4-.062a15.908,15.908,0,0,0-1.37,31.756q.707.063,1.406.062a15.908,15.908,0,0,0,1.368-31.756Zm-1.368,22.194c-.19,0-.38-.009-.571-.026a6.346,6.346,0,0,1,.535-12.667q.282,0,.569.027a6.345,6.345,0,0,1-.534,12.667Zm154.31-699.868a15.91,15.91,0,1,0-9.508-20.388A15.872,15.872,0,0,0,1007.666,547.738Zm-.523-17.117a6.328,6.328,0,0,1,8.133-3.792,6.345,6.345,0,1,1-8.133,3.792Zm-121.89,696.241a15.908,15.908,0,1,0,15.908,15.907A15.907,15.907,0,0,0,885.254,1226.862Zm0,22.252a6.345,6.345,0,1,1,6.345-6.345A6.351,6.351,0,0,1,885.254,1249.114Zm94.851-34.392a15.91,15.91,0,1,0,15.355,11.8A15.964,15.964,0,0,0,980.1,1214.722Zm5.485,19.084a6.3,6.3,0,0,1-3.852,2.956,6.324,6.324,0,0,1-7.771-4.486,6.345,6.345,0,0,1,4.487-7.771,6.322,6.322,0,0,1,7.769,4.487A6.3,6.3,0,0,1,985.589,1233.806Zm-248.277-40.332a15.91,15.91,0,1,0,7.694,21.139A15.836,15.836,0,0,0,737.312,1193.474Zm-.973,17.1a6.376,6.376,0,0,1-5.76,3.667,6.281,6.281,0,0,1-2.671-.6,6.348,6.348,0,0,1,2.691-12.1,6.347,6.347,0,0,1,5.74,9.03Zm212.554,10.954a15.909,15.909,0,1,0,15.648,13.148A16.006,16.006,0,0,0,948.893,1221.526Zm1.083,22.158a6.344,6.344,0,1,1-2.2-12.5,6.489,6.489,0,0,1,1.122-.1,6.346,6.346,0,0,1,1.081,12.6Zm-184.471-38.406a15.91,15.91,0,1,0,9.508,20.388A15.874,15.874,0,0,0,765.506,1205.278Zm.523,17.117a6.346,6.346,0,1,1-5.961-8.518,6.348,6.348,0,0,1,5.961,8.518Zm58.407-1.086a15.909,15.909,0,1,0,12.9,18.427A15.971,15.971,0,0,0,824.436,1221.308Zm3.486,16.767a6.359,6.359,0,1,1-5.147-7.35A6.325,6.325,0,0,1,827.922,1238.075Zm-33.3-23.5a15.91,15.91,0,1,0,11.25,19.482A15.948,15.948,0,0,0,794.621,1214.579Zm2.012,17.008a6.345,6.345,0,1,1-.634-4.814A6.35,6.35,0,0,1,796.633,1231.587Zm348-111.059a15.908,15.908,0,1,0,11.248,4.66A15.854,15.854,0,0,0,1144.63,1120.528Zm4.486,20.395a6.345,6.345,0,1,1,0-8.974A6.3,6.3,0,0,1,1149.116,1140.922Zm45.854-66.275a15.907,15.907,0,1,0,3.906,22.153A15.816,15.816,0,0,0,1194.97,1074.648Zm-3.927,16.669a6.363,6.363,0,0,1-5.21,2.706,6.345,6.345,0,0,1-5.184-9.984,6.365,6.365,0,0,1,5.214-2.706,6.344,6.344,0,0,1,5.181,9.984Zm-70.058,50.712a15.908,15.908,0,1,0,12.2,5.682A15.841,15.841,0,0,0,1120.985,1142.029Zm4.089,20.768a6.26,6.26,0,0,1-4.07,1.485,6.345,6.345,0,0,1-4.088-11.206,6.26,6.26,0,0,1,4.071-1.485,6.346,6.346,0,0,1,4.087,11.206Zm41.237-65.749a15.908,15.908,0,1,0,10.217,3.723A15.874,15.874,0,0,0,1166.311,1097.048Zm4.851,19.987a6.337,6.337,0,0,1-4.868,2.266,6.261,6.261,0,0,1-4.068-1.483,6.346,6.346,0,0,1,4.087-11.208,6.345,6.345,0,0,1,4.85,10.424Zm-160.56,88.19a15.91,15.91,0,1,0,14.951,10.471A15.884,15.884,0,0,0,1010.6,1205.225Zm2.171,21.875a6.348,6.348,0,1,1,3.793-8.134A6.318,6.318,0,0,1,1012.772,1227.1Zm82.788-65.713a15.908,15.908,0,1,0,13.044,6.784A15.834,15.834,0,0,0,1095.56,1161.387Zm6.263,17.009a6.348,6.348,0,1,1-1.052-4.74A6.313,6.313,0,0,1,1101.823,1178.4Zm-61.665,14.709a15.91,15.91,0,1,0,14.426,9.188A15.84,15.84,0,0,0,1040.159,1193.105Zm5.972,18.082a6.358,6.358,0,0,1-5.951,4.177,6.378,6.378,0,0,1-5.762-3.667,6.353,6.353,0,0,1,5.743-9.03,6.377,6.377,0,0,1,5.758,3.668A6.3,6.3,0,0,1,1046.13,1211.187Zm22.418-32.732a15.909,15.909,0,1,0,13.791,7.956A15.832,15.832,0,0,0,1068.548,1178.455Zm6.145,17.553a6.357,6.357,0,0,1-6.114,4.705,6.347,6.347,0,0,1-3.187-11.843,6.247,6.247,0,0,1,3.158-.853,6.376,6.376,0,0,1,5.508,3.175A6.3,6.3,0,0,1,1074.693,1196.008ZM677.613,591.629a15.909,15.909,0,1,0-13.045-6.785A15.831,15.831,0,0,0,677.613,591.629Zm-6.264-17.01a6.351,6.351,0,0,1,6.236-5.245,6.346,6.346,0,0,1,3.653,11.544,6.292,6.292,0,0,1-3.625,1.149,6.349,6.349,0,0,1-6.264-7.448Zm255.24,413.2a5.643,5.643,0,1,0,3.052-7.366A5.638,5.638,0,0,0,926.589,987.817Zm4.316,10.418a5.641,5.641,0,1,0,3.05-7.366A5.641,5.641,0,0,0,930.905,998.235ZM922.273,977.4a5.64,5.64,0,1,0,3.052-7.366A5.64,5.64,0,0,0,922.273,977.4Zm92.409,193.625a5.64,5.64,0,1,0-3.052,7.368A5.641,5.641,0,0,0,1014.682,1171.024Zm-79.463-162.37a5.643,5.643,0,1,0,3.052-7.366A5.64,5.64,0,0,0,935.219,1008.653Zm8.632,20.835a5.642,5.642,0,1,0,3.05-7.366A5.635,5.635,0,0,0,943.851,1029.488Zm59.426-64.382a28.093,28.093,0,1,0,19.865,8.228A28.008,28.008,0,0,0,1003.277,965.106Zm13.1,41.2a18.534,18.534,0,1,1,5.427-13.1A18.415,18.415,0,0,1,1016.382,1006.3Zm-76.847,12.768a5.64,5.64,0,1,0,3.052-7.367A5.64,5.64,0,0,0,939.535,1019.071Zm158.224-48.989a5.64,5.64,0,1,0-3.05-7.368A5.615,5.615,0,0,0,1097.759,970.082Zm31.253,12.944a5.639,5.639,0,1,0-3.05-7.366A5.617,5.617,0,0,0,1129.013,983.026Zm41.673,17.262a5.638,5.638,0,1,0-3.052-7.366A5.611,5.611,0,0,0,1170.686,1000.288ZM1035.86,559.542a15.909,15.909,0,1,0-7.695-21.14A15.842,15.842,0,0,0,1035.86,559.542Zm.971-17.1a6.38,6.38,0,0,1,5.763-3.667,6.347,6.347,0,0,1,5.737,9.03,6.374,6.374,0,0,1-5.758,3.667,6.349,6.349,0,0,1-5.742-9.03Zm-88.666,497.463a5.643,5.643,0,1,0,3.052-7.366A5.638,5.638,0,0,0,948.165,1039.906Zm160.013-65.51a5.639,5.639,0,1,0-3.052-7.366A5.62,5.62,0,0,0,1108.177,974.4Zm31.253,12.946a5.639,5.639,0,1,0-3.05-7.366A5.623,5.623,0,0,0,1139.431,987.342Zm20.836,8.63a5.638,5.638,0,1,0-3.052-7.366A5.61,5.61,0,0,0,1160.267,995.972Zm-10.418-4.314a5.639,5.639,0,1,0-3.052-7.366A5.617,5.617,0,0,0,1149.849,991.658ZM974.056,1102.415a5.643,5.643,0,1,0,3.052-7.366A5.64,5.64,0,0,0,974.056,1102.415Zm25.892,62.507a5.64,5.64,0,1,0,3.052-7.366A5.639,5.639,0,0,0,999.948,1164.921Zm-4.314-10.416a5.64,5.64,0,1,0,3.051-7.368A5.638,5.638,0,0,0,995.634,1154.5ZM886.586,1013.442a28.093,28.093,0,1,0,28.094,28.092A28.092,28.092,0,0,0,886.586,1013.442Zm0,46.624a18.531,18.531,0,1,1,18.532-18.532A18.551,18.551,0,0,1,886.586,1060.066Zm104.732,84.02a5.642,5.642,0,1,0,3.051-7.366A5.64,5.64,0,0,0,991.318,1144.086ZM987,1133.668a5.643,5.643,0,1,0,3.052-7.366A5.641,5.641,0,0,0,987,1133.668ZM768.908,1175.34a5.636,5.636,0,1,0-5.21,3.482A5.638,5.638,0,0,0,768.908,1175.34ZM836.165,983.5a5.633,5.633,0,1,0,5.212-3.483A5.639,5.639,0,0,0,836.165,983.5Zm4.315-10.419a5.636,5.636,0,1,0,5.212-3.481A5.638,5.638,0,0,0,840.48,973.084Zm124.946,108.494a5.643,5.643,0,1,0,3.052-7.366A5.638,5.638,0,0,0,965.427,1081.578Zm-4.316-10.418a5.64,5.64,0,1,0,3.052-7.366A5.64,5.64,0,0,0,961.111,1071.16Zm21.577,52.09a5.642,5.642,0,1,0,3.051-7.366A5.635,5.635,0,0,0,982.688,1123.25Zm-30.207-72.925a5.643,5.643,0,1,0,3.052-7.366A5.64,5.64,0,0,0,952.481,1050.325Zm4.316,10.418a5.639,5.639,0,1,0,3.05-7.368A5.636,5.636,0,0,0,956.8,1060.743Zm21.576,52.09a5.639,5.639,0,1,0,3.051-7.367A5.64,5.64,0,0,0,978.372,1112.833ZM969.742,1092a5.641,5.641,0,1,0,3.05-7.366A5.639,5.639,0,0,0,969.742,1092Zm117.6-126.23a5.64,5.64,0,1,0-3.05-7.367A5.623,5.623,0,0,0,1087.341,965.766Zm31.255,12.946a5.639,5.639,0,1,0-3.052-7.367A5.613,5.613,0,0,0,1118.6,978.712ZM1047.83,815.36a5.64,5.64,0,1,0-5.211-3.483A5.619,5.619,0,0,0,1047.83,815.36Zm10.418-4.316a5.639,5.639,0,1,0-5.21-3.481A5.626,5.626,0,0,0,1058.248,811.044Zm10.418-4.316a5.639,5.639,0,1,0-5.212-3.481A5.6,5.6,0,0,0,1068.666,806.728Zm-31.253,12.946a5.638,5.638,0,1,0-5.212-3.481A5.635,5.635,0,0,0,1037.413,819.674Zm-10.42,4.316a5.639,5.639,0,1,0-5.211-3.481A5.61,5.61,0,0,0,1026.993,823.99Zm52.09-21.576a5.64,5.64,0,1,0-5.211-3.483A5.62,5.62,0,0,0,1079.083,802.414Zm20.836-8.632a5.639,5.639,0,1,0-5.21-3.481A5.609,5.609,0,0,0,1099.919,793.782ZM1089.5,798.1a5.639,5.639,0,1,0-5.21-3.482A5.62,5.62,0,0,0,1089.5,798.1Zm53.8-153.058a347.654,347.654,0,0,0-25.261-25.26c-.066-.059-.126-.123-.192-.182l-.006.007a346.055,346.055,0,0,0-89.561-58.476,10.361,10.361,0,0,0,.2-1.16l-3.368-.227c-3.647-1.6-7.318-3.147-11.029-4.62l-3.48-3.361a10.3,10.3,0,0,0-1.23,1.549,344.113,344.113,0,0,0-104.652-22v0l-.107,0c-2.411-.125-4.831-.208-7.256-.282-.579-.018-1.153-.051-1.732-.066q-4.508-.116-9.041-.118t-9.041.118c-.579.015-1.153.048-1.733.066-2.425.074-4.845.157-7.256.282l-.107,0v0a344.1,344.1,0,0,0-104.676,22.01,10.234,10.234,0,0,0-1.628-1.97l-3.732,4.048q-4.921,1.966-9.761,4.086l-3.975.3a10.423,10.423,0,0,0,.211,1.348A346.022,346.022,0,0,0,655.331,619.6l-.006-.007c-.068.061-.132.128-.2.19a348.24,348.24,0,0,0-25.244,25.243c-.066.073-.137.142-.2.215a.027.027,0,0,0,.008.006A346.069,346.069,0,0,0,571.213,734.8a9.222,9.222,0,0,0-2.218-.231l.044,5.2c-1.4,3.238-2.761,6.493-4.059,9.783l-2.873,3.184a10.5,10.5,0,0,0,1.286.974,344.107,344.107,0,0,0-22,104.659h0c0,.025,0,.05,0,.074-.131,2.532-.221,5.075-.3,7.622-.014.464-.042.926-.053,1.391q-.117,4.51-.118,9.048t.118,9.049c.011.465.039.927.053,1.391.075,2.546.165,5.089.3,7.621,0,.025,0,.05,0,.075h0A344.108,344.108,0,0,0,563.4,999.318a10.356,10.356,0,0,0-1.939,1.594l4.01,3.749q1.819,4.557,3.773,9.047l.132,4.733a10.438,10.438,0,0,0,1.841-.221,346.059,346.059,0,0,0,58.468,89.542.021.021,0,0,0-.008.006c.064.071.135.138.2.21a348.073,348.073,0,0,0,25.239,25.239c.072.065.139.135.21.2a.022.022,0,0,0,.006-.008,346,346,0,0,0,89.555,58.472,10.3,10.3,0,0,0-.237,2.266l5.264-.067q4.466,1.926,9,3.737l3.558,3.539a10.305,10.305,0,0,0,1.326-1.656,344.1,344.1,0,0,0,104.657,22v0c.045,0,.092,0,.139,0,2.336.12,4.685.2,7.033.274.643.02,1.281.056,1.924.073q4.508.115,9.041.117t9.041-.117c.643-.017,1.281-.053,1.924-.073,2.349-.073,4.7-.154,7.033-.274.047,0,.093,0,.138,0v0a344.1,344.1,0,0,0,104.65-22,10.3,10.3,0,0,0,1.153,1.464l3.053-3.071c3.345-1.321,6.655-2.711,9.948-4.134l5-.044a10.418,10.418,0,0,0-.226-2.043,346.027,346.027,0,0,0,89.544-58.467l.006.006c.069-.062.132-.129.2-.19a347.428,347.428,0,0,0,25.257-25.258c.062-.069.129-.132.191-.2a.028.028,0,0,0-.008-.006,346.017,346.017,0,0,0,58.469-89.545,10.283,10.283,0,0,0,1.759.221l.023-4.3c1.483-3.414,2.929-6.848,4.305-10.317l3.192-3.39a10.376,10.376,0,0,0-1.453-1.141,344.094,344.094,0,0,0,22-104.651h0c0-.045,0-.092.005-.137.121-2.338.2-4.686.274-7.035.018-.643.056-1.281.073-1.924q.114-4.505.117-9.041t-.117-9.041c-.017-.643-.055-1.281-.073-1.924-.073-2.349-.153-4.7-.274-7.035,0-.045,0-.092-.005-.137h0a344.075,344.075,0,0,0-22-104.662,10.368,10.368,0,0,0,1.738-1.4l-3.681-3.627q-1.832-4.6-3.8-9.13l-.054-4.979a10.352,10.352,0,0,0-2.023.227,346.034,346.034,0,0,0-58.469-89.545l.008-.006C1143.432,645.176,1143.364,645.111,1143.3,645.04Zm-24.827-11.615q5.727,5.467,11.2,11.2c-26.579,23.67-94.161,88.558-105.487,145.577-12.292,1.34-36.452,7.176-65.66,30.662a91.779,91.779,0,0,0-16.287-16.288c23.4-29.1,29.284-53.16,30.644-65.657C1029.9,727.6,1094.8,660.007,1118.473,633.425ZM958.414,876.507a71.828,71.828,0,1,1-71.828-71.828A71.909,71.909,0,0,1,958.414,876.507Zm-54.33-335.653a333.8,333.8,0,0,1,104.594,22.507,10.33,10.33,0,0,0,1.247,2.024,5.517,5.517,0,0,0-1.346,1.872,5.638,5.638,0,1,0,10.843,2.061,10.483,10.483,0,0,0,2.223-.554,337.053,337.053,0,0,1,89.8,58.154c-22.755,25.49-92.126,98.184-147.8,103.726,0,0,3.063,30.6-32.391,72.192-.8-.482-1.61-.935-2.42-1.393a9.958,9.958,0,0,0-1.8-9.221,5.538,5.538,0,0,0,1.348-1.874,5.638,5.638,0,1,0-10.84-2.033,9.938,9.938,0,0,0-7.732,5.223c-.9-.251-1.8-.493-2.708-.716,4.345-54.476,28.145-73.942,28.145-73.942C899.731,675.519,902.15,574.8,904.084,540.855Zm-25.423-.353c2.635-.062,5.276-.1,7.925-.1s5.29.039,7.925.1C892.452,575.935,890.5,669.813,922.86,718.2c-7.874,9.8-20.729,30.967-24.757,68.084a91.8,91.8,0,0,0-23.034,0c-4.028-37.118-16.883-58.287-24.757-68.084C882.667,669.813,880.72,575.935,878.661,540.5Zm-127.125,28.26a10.383,10.383,0,0,0,2.218.531,5.636,5.636,0,1,0,10.84-2.035,5.529,5.529,0,0,0-1.346-1.872,10.359,10.359,0,0,0,1.247-2.024,333.8,333.8,0,0,1,104.594-22.507c1.935,33.947,4.353,134.664-31.158,178.027,0,0,23.8,19.466,28.145,73.942-.909.223-1.809.465-2.7.716a9.966,9.966,0,0,0-7.735-5.224,5.635,5.635,0,1,0-10.839,2.034,5.52,5.52,0,0,0,1.346,1.874,9.958,9.958,0,0,0-1.8,9.221c-.811.457-1.626.91-2.422,1.394-35.452-41.6-32.39-72.194-32.39-72.194-55.677-5.542-125.047-78.236-147.8-103.726A337.064,337.064,0,0,1,751.536,568.762ZM654.7,633.425c23.672,26.582,88.571,94.172,145.593,105.491,1.36,12.5,7.244,36.56,30.645,65.657a91.727,91.727,0,0,0-16.287,16.289c-29.209-23.487-53.368-29.323-65.66-30.663C737.664,733.179,670.082,668.291,643.5,644.621Q648.97,638.894,654.7,633.425ZM573.44,754.415a10.373,10.373,0,0,0,1.986-1.214,5.634,5.634,0,1,0,4.07-9.534c-.045,0-.087.018-.132.019a10.591,10.591,0,0,0-.526-2.221A337.08,337.08,0,0,1,637,651.651c25.49,22.756,98.183,92.126,103.726,147.8,0,0,.669-.067,1.94-.067,7.337,0,34.8,2.316,70.229,32.5-.476.783-.922,1.584-1.373,2.383a10.377,10.377,0,0,0-9.176,1.771,5.635,5.635,0,1,0-4.076,9.528c.043,0,.082-.017.126-.018a10.449,10.449,0,0,0,.669,2.682,10.285,10.285,0,0,0,4.556,5.06c-.252.9-.495,1.8-.718,2.708-54.475-4.347-73.941-28.145-73.941-28.145-33.066,27.081-99.526,32.1-144.271,32.1-13.913,0-25.7-.485-33.754-.943A333.767,333.767,0,0,1,573.44,754.415ZM550.48,876.507c0-2.654.039-5.3.1-7.936,8.254.469,20.113.946,34.106.946,46.44,0,107.644-5.237,143.587-29.285,9.8,7.875,30.967,20.73,68.085,24.757a91.81,91.81,0,0,0,0,23.036c-37.118,4.028-58.287,16.882-68.085,24.756-35.943-24.047-97.15-29.283-143.593-29.283-13.984,0-25.844.478-34.1.945C550.519,881.8,550.48,879.161,550.48,876.507ZM637,1101.364a337.1,337.1,0,0,1-58.159-89.812,10.472,10.472,0,0,0,.528-2.222c.045,0,.085.018.131.018a5.642,5.642,0,1,0-4.07-9.534,10.442,10.442,0,0,0-1.986-1.216A333.763,333.763,0,0,1,550.934,894c8.057-.459,19.842-.943,33.748-.943,44.747,0,111.208,5.021,144.277,32.1,0,0,19.467-23.8,73.941-28.143.223.91.467,1.811.718,2.709a10.372,10.372,0,0,0-5.219,7.739c-.044,0-.085-.019-.131-.019a5.642,5.642,0,1,0,4.063,9.542,10.468,10.468,0,0,0,6.371,2.2,10.353,10.353,0,0,0,2.819-.443c.451.8.9,1.6,1.371,2.384-35.426,30.176-62.887,32.5-70.228,32.5-1.275,0-1.942-.067-1.942-.067C735.18,1009.24,662.487,1078.609,637,1101.364Zm17.7,18.227q-5.727-5.467-11.2-11.2c26.58-23.671,94.161-88.558,105.487-145.576,12.292-1.341,36.451-7.178,65.66-30.664a91.76,91.76,0,0,0,16.287,16.289c-23.4,29.1-29.284,53.16-30.645,65.657C743.27,1025.419,678.371,1093.008,654.7,1119.591Zm214.389,92.569a333.8,333.8,0,0,1-104.6-22.509,10.381,10.381,0,0,0-1.247-2.016,5.515,5.515,0,0,0,1.353-1.877,5.638,5.638,0,1,0-10.84-2.026,10.427,10.427,0,0,0-2.21.525,337.06,337.06,0,0,1-89.814-58.159c22.755-25.49,92.126-98.185,147.8-103.726,0,0-3.063-30.6,32.391-72.193.8.482,1.611.935,2.422,1.394a9.955,9.955,0,0,0,1.8,9.221,5.506,5.506,0,0,0-1.346,1.872,5.638,5.638,0,1,0,10.839,2.034,10.441,10.441,0,0,0,2.673-.668,10.32,10.32,0,0,0,5.063-4.557c.9.252,1.8.494,2.7.716-4.345,54.476-28.145,73.943-28.145,73.943C873.441,1077.5,871.023,1178.213,869.088,1212.16Zm25.423.352c-2.635.063-5.276.1-7.925.1s-5.29-.039-7.925-.1c2.059-35.43,4.008-129.308-28.349-177.693,7.874-9.8,20.729-30.967,24.757-68.083a91.86,91.86,0,0,0,23.034,0c4.028,37.116,16.883,58.287,24.757,68.083C890.5,1083.2,892.452,1177.081,894.511,1212.511Zm127.114-28.254a10.436,10.436,0,0,0-2.207-.525,5.636,5.636,0,1,0-10.84,2.025,5.52,5.52,0,0,0,1.352,1.877,10.42,10.42,0,0,0-1.245,2.016,333.805,333.805,0,0,1-104.6,22.509c-1.934-33.947-4.353-134.664,31.159-178.026,0,0-23.8-19.467-28.145-73.943.909-.222,1.81-.465,2.708-.716a9.958,9.958,0,0,0,7.732,5.225,5.636,5.636,0,1,0,10.84-2.034,5.532,5.532,0,0,0-1.348-1.874,9.954,9.954,0,0,0,1.8-9.221c.811-.458,1.625-.911,2.42-1.393,35.454,41.6,32.391,72.193,32.391,72.193,55.677,5.541,125.047,78.235,147.8,103.726A337.045,337.045,0,0,1,1021.625,1184.258Zm96.848-64.667c-23.672-26.583-88.571-94.172-145.593-105.49-1.36-12.5-7.243-36.561-30.644-65.657a91.777,91.777,0,0,0,16.287-16.288c29.208,23.484,53.368,29.32,65.66,30.662,11.326,57.017,78.907,121.905,105.487,145.576Q1124.2,1114.123,1118.473,1119.591ZM1199.732,998.6a10.4,10.4,0,0,0-1.986,1.216,5.633,5.633,0,1,0-4.07,9.534c.043,0,.083-.017.126-.018a10.358,10.358,0,0,0,.53,2.225,337.069,337.069,0,0,1-58.158,89.808c-25.49-22.755-98.183-92.124-103.725-147.8,0,0-.669.067-1.942.067-7.338,0-34.8-2.317-70.228-32.5.475-.783.92-1.584,1.369-2.381a9.961,9.961,0,0,0,9.184-1.768,5.634,5.634,0,1,0,4.072-9.534c-.045,0-.087.019-.133.02a10.371,10.371,0,0,0-5.218-7.74c.252-.9.495-1.8.717-2.711,54.476,4.349,73.941,28.145,73.941,28.145,33.066-27.081,99.532-32.1,144.278-32.1,13.909,0,25.692.484,33.748.943A333.772,333.772,0,0,1,1199.732,998.6Zm22.959-122.092c0,2.654-.039,5.3-.1,7.936-8.256-.467-20.116-.945-34.1-.945-46.443,0-107.651,5.236-143.593,29.283-9.8-7.874-30.967-20.728-68.084-24.756a91.818,91.818,0,0,0,0-23.036c37.118-4.028,58.287-16.882,68.084-24.757,35.942,24.048,97.147,29.285,143.589,29.285,13.991,0,25.851-.478,34.1-.946C1222.653,871.211,1222.691,873.854,1222.691,876.507Zm-28.357-135.042a10.475,10.475,0,0,0-.526,2.221c-.045,0-.088-.019-.132-.019a5.643,5.643,0,1,0,4.07,9.534,10.437,10.437,0,0,0,1.986,1.215,333.776,333.776,0,0,1,22.507,104.6c-8.059.458-19.845.943-33.753.943-44.747,0-111.2-5.021-144.273-32.1,0,0-19.465,23.8-73.941,28.145-.222-.909-.465-1.81-.717-2.708a10.286,10.286,0,0,0,4.555-5.06,10.412,10.412,0,0,0,.669-2.682c.044,0,.084.018.128.018a5.641,5.641,0,1,0-4.08-9.526,10.377,10.377,0,0,0-9.175-1.769c-.451-.8-.9-1.6-1.372-2.387,35.427-30.178,62.891-32.5,70.229-32.5,1.273,0,1.941.067,1.941.067,5.542-55.677,78.235-125.047,103.725-147.8A337.044,337.044,0,0,1,1194.335,741.465ZM1084.726,568.124a15.9,15.9,0,1,0,13.042-6.784A15.908,15.908,0,0,0,1084.726,568.124Zm7.833,5.484a6.363,6.363,0,0,1,5.21-2.706,6.345,6.345,0,0,1,5.183,9.986,6.362,6.362,0,0,1-5.211,2.706,6.345,6.345,0,0,1-5.182-9.986Zm-15.635,387.843a5.639,5.639,0,1,0-3.052-7.367A5.619,5.619,0,0,0,1076.924,961.451Zm-14.007-387.693a15.909,15.909,0,1,0-5.823-21.729A15.829,15.829,0,0,0,1062.917,573.758Zm2.459-16.949a6.377,6.377,0,0,1,5.511-3.175,6.245,6.245,0,0,1,3.157.852,6.347,6.347,0,0,1-3.188,11.843,6.346,6.346,0,0,1-5.48-9.52Zm117.882,191.173a5.639,5.639,0,1,0,5.212,3.482A5.625,5.625,0,0,0,1183.258,747.982Zm-166.682,80.324a5.64,5.64,0,1,0-5.212-3.483A5.619,5.619,0,0,0,1016.576,828.305Zm-31.255,12.946a5.639,5.639,0,1,0-5.211-3.483A5.611,5.611,0,0,0,985.322,841.251Zm20.838-8.632a5.639,5.639,0,1,0-5.212-3.481A5.64,5.64,0,0,0,1006.16,832.619Zm-10.42,4.316a5.64,5.64,0,1,0-5.211-3.481A5.612,5.612,0,0,0,995.74,836.935Zm114.6-47.467a5.64,5.64,0,1,0-5.212-3.483A5.619,5.619,0,0,0,1110.338,789.468Zm10.417-4.316a5.639,5.639,0,1,0-5.211-3.482A5.619,5.619,0,0,0,1120.755,785.152ZM1014.416,935.559a5.638,5.638,0,1,0-3.052-7.366A5.612,5.612,0,0,0,1014.416,935.559ZM1004,931.245a5.64,5.64,0,1,0-3.05-7.368A5.608,5.608,0,0,0,1004,931.245Zm-10.418-4.316a5.639,5.639,0,1,0-3.051-7.366A5.613,5.613,0,0,0,993.58,926.929Zm72.926,30.207a5.639,5.639,0,1,0-3.052-7.368A5.6,5.6,0,0,0,1066.506,957.136Zm-83.343-34.523a5.638,5.638,0,1,0-3.052-7.366A5.611,5.611,0,0,0,983.163,922.613Zm72.925,30.207a5.639,5.639,0,1,0-3.05-7.366A5.616,5.616,0,0,0,1056.088,952.82Zm-20.835-8.63a5.639,5.639,0,1,0-3.052-7.367A5.607,5.607,0,0,0,1035.253,944.19Zm-10.418-4.316a5.638,5.638,0,1,0-3.052-7.366A5.611,5.611,0,0,0,1024.834,939.874Zm116.757-163.353a5.639,5.639,0,1,0-5.21-3.482A5.611,5.611,0,0,0,1141.591,776.522Zm-10.417,4.315a5.639,5.639,0,1,0-5.212-3.482A5.607,5.607,0,0,0,1131.175,780.836Zm20.835-8.63a5.639,5.639,0,1,0-5.212-3.482A5.627,5.627,0,0,0,1152.009,772.206Zm-100.4,76.209a28.093,28.093,0,1,0,28.094,28.092A28.092,28.092,0,0,0,1051.613,848.415Zm0,46.624a18.531,18.531,0,1,1,18.532-18.532A18.552,18.552,0,0,1,1051.613,895.039Zm133.8,99.146a5.638,5.638,0,1,0,3.052,7.366A5.611,5.611,0,0,0,1185.418,994.185Zm-22.991-226.294a5.639,5.639,0,1,0-5.212-3.482A5.624,5.624,0,0,0,1162.427,767.891Zm10.417-4.315a5.639,5.639,0,1,0-5.21-3.482A5.611,5.611,0,0,0,1172.844,763.576Z" transform="translate(-457.024 -446.947)" fill="#736457"/>
</svg>
