<svg xmlns="http://www.w3.org/2000/svg" xmlns:xlink="http://www.w3.org/1999/xlink" width="217.937" height="218.67" viewBox="0 0 217.937 218.67">
  <defs>
    <linearGradient id="linear-gradient" x1="-0.13" y1="-0.135" x2="1.28" y2="1.145" gradientUnits="objectBoundingBox">
      <stop offset="0" stop-color="#eeb313"/>
      <stop offset="1" stop-color="#dc6a1e"/>
    </linearGradient>
  </defs>
  <g id="Group_90363" data-name="Group 90363" transform="translate(-628.532 -3553.329)">
    <path id="Path_102604" data-name="Path 102604" d="M95.84-137.915V45.194l19.275,16.431H47.022L67.086,45.194V-93.836A39.873,39.873,0,0,1,48.6-89.1q-14.535,0-22.434-11.849h1.264q9.637,7.9,20.855,7.9a32.881,32.881,0,0,0,18.8-5.53v-9.8a41.257,41.257,0,0,1-25.12,7.9q-7.9,0-13.192-3.634t-5.293-9.005q0-7.9,7.425-8.215,6.636-.316,6.636,6a8.018,8.018,0,0,1-.316,2.212A6.656,6.656,0,0,0,37.068-112q.158,2.528,4.266,2.528,10.427,0,20.539-8.057A49.7,49.7,0,0,0,77.04-137.915Zm7.9,2.844,4.266,2.054V45.194L133.442,74.58H52.551l-3.476-4.266h75.2L103.74,46.458Z" transform="translate(605.051 3691.244)" fill="url(#linear-gradient)"/>
    <path id="Path_102605" data-name="Path 102605" d="M45.149-24.317Q15.658-37.076,15.658-57.179q0-12.759,7.764-21.547T52.251-98.587q13.722-7.222,20.343-12.158l3.732-2.769q2.648-1.806,2.528-3.25a1.324,1.324,0,0,0-.963-1.324l-1.806-.843q-2.769-1.2-2.769-5.417,0-6.982,6.62-6.982,3.25,0,5.9,3.37a11.96,11.96,0,0,1,2.648,7.583q0,10.472-21.667,22.991L52.131-88.837Q35.038-78.966,35.038-65.725a17.177,17.177,0,0,0,4.695,12.218q4.695,5,16.973,10.894a108.227,108.227,0,0,0,18.778,7.222Q103.41-43.7,103.41-63.318a18.059,18.059,0,0,0-6.32-13.9,22.219,22.219,0,0,0-15.468-5.718q-11.917,0-16.25,9.991Q63.928-69.457,62-69.457q-3.732,0-3.732-6.019,0-6.982,6.2-11.736t15.468-4.755q14.084,0,23.894,8.426t9.81,20.584a27.266,27.266,0,0,1-6.259,17.695q-6.259,7.7-21.065,15.769a10.547,10.547,0,0,1,1.565.722l5.658,2.407q.241.12,1.324.6,25.519-12.519,25.519-34.065a23.585,23.585,0,0,0-1.866-9.931q-1.866-4.032-8.366-12.7a13.821,13.821,0,0,1-1.083-1.324q14.2,8.787,14.2,25.4,0,9.991-7.1,19.5A45.9,45.9,0,0,1,97.752-24.317,59.5,59.5,0,0,1,120.021-4.4a47.55,47.55,0,0,1,7.945,26.422q0,19.982-16.07,32.5T70.307,67.046q-28.408,0-46.584-13.181T5.547,20.1A36.249,36.249,0,0,1,14.394-4.215q8.847-10.352,28.468-19.139ZM68.742-13.724Q37.084-1.566,37.084,20.943q0,17.334,16.25,30.936v.963A37.75,37.75,0,0,1,39.251,39.059a35.862,35.862,0,0,1-5.176-18.6q0-24.917,31.176-35.51L53.335-18.9Q25.89-5.3,25.89,19.378q0,17.936,12.7,28.588T72.715,58.62q16.732,0,26.422-8.306t9.69-22.63A32.755,32.755,0,0,0,99.738,4.573Q90.65-5.178,71.03-12.882ZM89.687-129.643q6.259,5.778,6.259,12.158,0,12.037-17.093,22.75l-1.2.722H72.835Q92.7-105.809,92.7-117.245q0-5.056-4.213-11.315Zm28.167,116.28q8.426,4.333,13.843,14.5a45.781,45.781,0,0,1,5.417,21.848q0,23.834-18,38.519T71.752,76.194q-28.528,0-45.38-14.806v-.6l1.806,1.2a66.1,66.1,0,0,0,19.2,8.546q9.81,2.528,24.014,2.528,28.408,0,45.5-13.843t17.093-37.075A41.485,41.485,0,0,0,124.6-4.817L118.938-11.8Q118.817-11.919,117.854-13.363ZM99.919-66.447Q93.058-73.79,84.993-73.79q-9.63,0-14.565,7.343H68.622Q73.8-76.92,84.993-76.92q10.834,0,16.01,10.472ZM56.464-79.929Q44.788-71.864,44.788-63.077A15.911,15.911,0,0,0,50.566-50.2l-.722.843Q41.779-56.1,41.779-64.642q0-9.269,14.685-19.139Z" transform="translate(709.355 3695.805)" fill="url(#linear-gradient)"/>
  </g>
</svg>
