<svg xmlns="http://www.w3.org/2000/svg" width="17.138" height="11.431" viewBox="0 0 17.138 11.431">
  <path id="Path_38089" data-name="Path 38089" d="M769.507-1357.042c0-.007,0-.014,0-.02a2.346,2.346,0,0,0-1.7-1.627,56.439,56.439,0,0,0-6.516-.3,51.432,51.432,0,0,0-6.528.333,2.347,2.347,0,0,0-1.692,1.644,19.316,19.316,0,0,0-.349,3.75,19.277,19.277,0,0,0,.357,3.812,2.359,2.359,0,0,0,1.689,1.559,51.471,51.471,0,0,0,6.523.332,51.383,51.383,0,0,0,6.527-.333,2.345,2.345,0,0,0,1.692-1.644,19.3,19.3,0,0,0,.35-3.722A19.3,19.3,0,0,0,769.507-1357.042Zm-5.433,4.054-4.3,2.285a.358.358,0,0,1-.167.04.353.353,0,0,1-.169-.042.311.311,0,0,1-.167-.272v-4.569a.311.311,0,0,1,.167-.272.357.357,0,0,1,.336,0l4.3,2.285a.312.312,0,0,1,.17.274A.311.311,0,0,1,764.074-1352.988Z" transform="translate(-752.719 1358.991)" fill="#481f0d"/>
</svg>
